<svg width="366" height="366" viewBox="0 0 366 366" fill="none" xmlns="http://www.w3.org/2000/svg">
<path d="M225.904 356.001H335.077C346.123 356.001 355.077 347.047 355.077 336.001V227.407" stroke="#1A1F24" stroke-width="20"/>
<path d="M356 139.52L356 30.0008C356 18.9551 347.046 10.0008 336 10.0008L227.75 10.0008" stroke="#1A1F24" stroke-width="20"/>
<path d="M139.173 9.99952L30 9.99953C18.9543 9.99953 9.99999 18.9538 9.99999 29.9995L10 137.668" stroke="#1A1F24" stroke-width="20"/>
<path d="M10.0001 226.481L10.0001 336C10.0001 347.046 18.9544 356 30.0001 356L137.328 356" stroke="#1A1F24" stroke-width="20"/>
<path fill-rule="evenodd" clip-rule="evenodd" d="M89.925 277.575C91.3917 278.858 93.0417 279.5 94.875 279.5H127.875C129.892 279.5 131.542 278.858 132.825 277.575C134.108 276.292 134.75 274.642 134.75 272.625V224.299L88 224.09V272.625C88 274.642 88.6417 276.292 89.925 277.575ZM88 204.089V93.875C88 91.8583 88.6417 90.2083 89.925 88.925C91.3917 87.6417 93.0417 87 94.875 87H124.575C127.508 87 129.708 87.825 131.175 89.475C132.825 90.9417 133.833 92.1333 134.2 93.05L182.6 179.95L231 93.05C231.55 92.1333 232.467 90.9417 233.75 89.475C235.217 87.825 237.508 87 240.625 87H270.05C272.067 87 273.717 87.6417 275 88.925C276.467 90.2083 277.2 91.8583 277.2 93.875V204.938L230.175 204.727V169.5L211.175 204.642L153.611 204.384L134.75 169.5V204.299L88 204.089ZM164.45 224.433L165.825 226.975C166.742 228.625 167.933 230.092 169.4 231.375C170.867 232.658 172.883 233.3 175.45 233.3H189.75C192.317 233.3 194.333 232.658 195.8 231.375C197.267 230.092 198.367 228.625 199.1 226.975L200.388 224.594L164.45 224.433ZM230.175 224.727V272.625C230.175 274.642 230.817 276.292 232.1 277.575C233.567 278.858 235.308 279.5 237.325 279.5H270.05C272.067 279.5 273.717 278.858 275 277.575C276.467 276.292 277.2 274.642 277.2 272.625V224.938L230.175 224.727Z" fill="#1A1F24"/>
<line x1="58.0448" y1="196" x2="308.042" y2="197.121" stroke="#1A1F24" stroke-width="20"/>
</svg>
